<?xml version="1.0" encoding="UTF-8"?>
<svg xmlns="http://www.w3.org/2000/svg" xmlns:xlink="http://www.w3.org/1999/xlink" viewBox="0 0 16 16" width="16px" height="16px">
<g id="surface29320794">
<path style=" stroke:none;fill-rule:nonzero;fill:rgb(100%,100%,100%);fill-opacity:1;" d="M 2 3.332031 C 1.757812 3.328125 1.535156 3.457031 1.414062 3.664062 C 1.292969 3.871094 1.292969 4.128906 1.414062 4.335938 C 1.535156 4.542969 1.757812 4.671875 2 4.667969 L 14 4.667969 C 14.242188 4.671875 14.464844 4.542969 14.585938 4.335938 C 14.707031 4.128906 14.707031 3.871094 14.585938 3.664062 C 14.464844 3.457031 14.242188 3.328125 14 3.332031 Z M 2 7.332031 C 1.757812 7.328125 1.535156 7.457031 1.414062 7.664062 C 1.292969 7.871094 1.292969 8.128906 1.414062 8.335938 C 1.535156 8.542969 1.757812 8.671875 2 8.667969 L 14 8.667969 C 14.242188 8.671875 14.464844 8.542969 14.585938 8.335938 C 14.707031 8.128906 14.707031 7.871094 14.585938 7.664062 C 14.464844 7.457031 14.242188 7.328125 14 7.332031 Z M 2 11.332031 C 1.757812 11.328125 1.535156 11.457031 1.414062 11.664062 C 1.292969 11.871094 1.292969 12.128906 1.414062 12.335938 C 1.535156 12.542969 1.757812 12.671875 2 12.667969 L 14 12.667969 C 14.242188 12.671875 14.464844 12.542969 14.585938 12.335938 C 14.707031 12.128906 14.707031 11.871094 14.585938 11.664062 C 14.464844 11.457031 14.242188 11.328125 14 11.332031 Z M 2 11.332031 "/>
</g>
</svg>
